<svg xmlns="http://www.w3.org/2000/svg" viewBox="0 0 2560 2560" xml:space="preserve">
  <path fill="#FFFFFF" d="M257.9998 2441.677c-36.3297 0-71.6595.0107-106.9893-.0046-17.159-.0076-26.5643-9.293-26.6862-26.28-.0071-1-.001-1.9998-.001-2.9998.0001-753.2572.0085-1506.5144-.0986-2259.7717-.0013-9.1234 1.4627-16.9966 8.788-23.2378 4.272-3.6397 8.7397-5.9274 14.3938-5.7343 2.3303.0796 4.6657.0117 6.9988.0117 752.924 0 1505.8478-.0005 2258.7717.0123 3.6594 0 7.3965-.2546 10.9636.3718 10.4763 1.8398 17.928 11.0221 18.198 21.9092.0496 1.9985.0073 3.9994.0073 5.9992 0 753.9238.004 1507.8475-.0769 2261.7714-.0004 4.8816-.0241 10.3059-2.0297 14.531-4.0955 8.6274-11.2789 13.7758-21.4598 13.4333-2.3303-.0783-4.6657-.0117-6.9987-.0117H257.9998m-82.323-2192.6771v2141.9977h2215.9189v-145.3204h-12.6894c-345.3333 0-690.6667.0061-1036-.059-5.2646-.001-10.605-.4754-15.7784-1.4366-12.5927-2.3405-19.708-12.1191-19.474-26.0871.206-12.2952 7.962-21.7427 19.941-23.7363 4.2358-.7049 8.6246-.6717 12.9434-.6722 346.3334-.0278 692.6667-.0256 1039-.0256l11.615.0002c2.0991-12.8017 1.5515-2012.001-.356-2018.7083H472.3534v145.3709H1497.95c10.6666 0 21.4115.8102 31.9798-.2093 12.6177-1.2172 26.023 12.6812 25.9225 23.792-.139 15.3536-9.1332 26.4929-24.0162 27.7273-2.9798.2472-5.997.0433-8.997.0433-346.3332.0003-692.6666.0003-1038.9999.0003h-12.1624v12.9567c0 477 .004 953.9998-.0552 1430.9998-.0006 4.931-.3557 9.9625-1.3689 14.7737-2.7542 13.079-12.3132 20.2567-25.8072 19.932-12.453-.2996-21.9647-8.3823-24.0836-21.003-.7653-4.5588-.6829-9.29-.6831-13.9426-.0272-542-.0256-1083.9998-.0256-1625.9998 0-2.6667.1054-5.3388-.0328-7.9983-.1147-2.2045-.5166-4.3941-.7913-6.5906H175.6768V249z"/>
  <path fill="#FFFFFF" d="M2023.2693 742.7274c50.1628 50.2147 92.2942 105.7401 126.2952 167.1537 40.1936 72.5986 68.142 149.7712 82.9445 231.587 6.2644 34.625 11.241 69.3576 11.8628 104.6133.3047 17.2776 1.4451 34.5595 1.1807 51.8238-.5027 32.8494-3.1914 65.586-8.1204 98.072-7.082 46.6784-18.1128 92.4112-33.5515 137.0852-28.1665 81.5038-68.8137 156.1284-122.2097 223.8528-20.6375 26.1754-43.1088 50.6624-67.0006 73.8487-54.9922 53.368-116.1176 98.1625-184.4889 133.1317-39.478 20.1912-80.2666 36.9562-122.5521 49.9662-39.6632 12.2034-80.1348 20.899-121.318 26.6765-45.2403 6.3466-90.6398 8.3919-136.1558 6.9228-32.1134-1.0368-64.0973-4.7028-95.849-9.9296-41.995-6.9127-83.1131-17.3783-123.3435-31.1893-57.4542-19.7243-111.8473-45.8992-162.9067-78.852-36.9402-23.8408-71.5656-50.6745-103.8043-80.6195-32.4804-30.1693-63.1617-61.9926-90.0564-97.28-36.2109-47.511-66.9606-98.269-91.323-152.9429-18.171-40.779-33.0097-82.6413-43.6858-125.9326-9.4525-38.3296-15.886-77.1645-19.8172-116.5298-3.5828-35.877-3.9942-71.7828-2.6852-107.6102 1.3783-37.7224 6.1535-75.267 13.6095-112.3807 10.824-53.88 26.6856-106.1547 48.5555-156.6367 29.9591-69.1542 69.0652-132.6304 118.0803-189.8063 52.727-61.5057 113.2027-114.1504 182.2997-156.7895 62.0764-38.3066 128.1953-67.1214 198.496-86.4501 40.0505-11.0115 80.7723-18.3605 122.0475-22.8661 41.416-4.521 82.9887-5.4392 124.4806-3.103 65.8058 3.7055 130.2355 15.6293 193.064 35.9324 54.9454 17.7556 107.1525 41.4376 156.5612 71.275 41.3648 24.9795 80.41 53.1426 116.133 85.7657 11.0518 10.0927 21.846 20.4673 33.2576 31.2115m-981.4874 1102.4802c4.9561 3.915 9.769 8.029 14.8905 11.714 52.295 37.6277 107.883 69.225 168.2105 92.2638 76.9794 29.3982 156.6725 44.943 238.9705 47.0741 42.5665 1.1023 84.8982-1.9905 127.0259-8.3185 44.4555-6.6777 87.7934-17.8872 130.0482-32.9016 50.2478-17.8546 97.8578-41.3203 142.8548-70.1208 55.5345-35.545 105.5525-77.6017 149.3106-126.8191 43.0414-48.4118 79.194-101.6216 107.6349-159.9984 24.8325-50.9706 43.706-103.946 56.201-159.2661 8.9323-39.5474 14.5104-79.594 16.395-119.9794 1.267-27.1569.0793-54.4877-1.2017-81.6845-.949-20.1506-3.19-40.2972-5.9436-60.2955-8.1956-59.5201-25.1177-116.6829-48.1453-172.0757-21.8035-52.448-50.017-101.3357-83.7153-146.9665-30.1094-40.7711-64.2039-78.0094-102.4169-111.4088-41.4673-36.2438-86.3574-67.6028-134.8774-93.6049-56.5154-30.287-116.1956-52.2776-178.73-66.5356-36.2655-8.2685-72.996-13.6388-110.0689-15.6742-21.12-1.1594-42.2976-3.1043-63.5887-1.0998-16.8368 1.5852-33.8662 1.0844-50.718 2.561-43.3633 3.8-85.959 11.9495-127.8598 23.8136-50.371 14.2625-98.7759 33.4194-144.6339 58.6646-75.264 41.4332-141.8377 93.8702-198.241 158.8651-36.2976 41.8264-67.8248 87.0086-93.5858 136.0808-29.484 56.164-51.087 115.2398-65.0362 177.1532-9.5004 42.1684-15.2273 84.8548-16.689 127.9749-1.385 40.8579.057 81.6769 5.6944 122.3104 5.6673 40.8496 14.2428 81.009 26.7138 120.2877 25.1698 79.275 62.6325 152.1763 113.2805 218.3108 36.9873 48.297 78.936 91.5707 128.2209 129.6754z"/>
  <path fill="#FFFFFF" d="M395.6607 1998.0103v-25.6311h99.295v99.4016h-99.295v-73.7705z"/>
  <path fill="#FFFFFF" d="M491.222 2269.6606c-32.1193.0132-63.3043.0132-95.0253.0132v-99.5058h98.9561c.1816 2.725.4976 5.2873.5009 7.85.0355 27.9354.0752 55.8707-.058 83.8052-.0136 2.8638 1.8896 7.0857-4.3737 7.8374z"/>
  <path fill="#FFFFFF" d="M1575.7402 1527.7405c-22.6466 22.6459-44.7783 44.8066-66.9459 66.9316-12.7015 12.6773-26.689 12.8738-39.2602.3131-81.0794-81.0125-162.2286-161.9561-243.0885-243.1872-28.9029-29.0355-45.0813-64.1935-48.9156-105.2454-4.2746-45.7699 7.03-87.1114 35.1635-123.1201 28.7914-36.8507 66.673-59.2507 113.4844-65.5542 40.2712-5.4229 78.1218 1.9352 112.7448 23.0856 12.0725 7.3747 22.7296 17.155 33.643 26.302 5.579 4.676 10.2962 10.3799 15.899 16.1281 7.4236-6.8663 14.5321-13.1568 21.3229-19.7735 25.3224-24.6735 55.6798-39.6472 90.3345-45.111 48.1263-7.5875 92.707 2.4207 131.8456 31.772 38.6757 29.004 62.0191 67.7513 68.322 116.057 6.4732 49.6113-6.2897 94.0369-36.9724 133.4038-2.0357 2.6117-4.4982 4.9024-6.8498 7.2548-60.0687 60.0881-120.149 120.1646-180.7273 180.7434m112.046-404.6918c-1.7862-.8903-3.5704-1.7844-5.3588-2.6702-46.5894-23.068-100.9384-13.7343-136.8097 20.5675-12.5102 11.963-24.8798 24.0738-37.2425 36.1896-11.848 11.6111-25.9054 11.6703-37.6685.1295-12.5983-12.36-24.8172-25.154-37.9904-36.8718-29.444-26.1908-63.7909-37.7866-103.038-30.6245-50.2312 9.1666-83.1718 39.2626-97.1019 87.8-13.0847 45.5914-.8054 86.2682 32.4395 119.7868 72.0534 72.6467 144.6165 144.7882 216.9123 217.195 2.311 2.3144 3.9762 5.2736 6.2818 8.391 4.342-4.2017 7.227-6.9149 10.0263-9.7137 71.1783-71.168 142.3548-142.3376 213.4983-213.5403 3.7575-3.7606 7.438-7.638 10.7888-11.7584 24.8401-30.5452 33.3964-65.4371 25.3903-103.7289-7.393-35.3596-27.6215-62.095-60.1274-81.1516z"/>
  <path fill="#FFFFFF" d="M1841.258 1587.2437c25.208-30.3177 46.4738-62.3709 63.4262-97.218 19.7223-40.5408 33.7787-82.9249 41.5118-127.392 4.1618-23.9305 6.4303-47.9688 6.2524-72.2876-.0702-9.575.8774-18.9635 8.8514-26.4505 7.9305-7.4461 16.9447-7.5923 26.0513-5.1513 8.9206 2.3908 14.7348 8.9438 16.2428 18.3873.6778 4.2449.785 8.6263.7118 12.9383-.701 41.2803-5.7721 82.0358-16.1149 122.0032-13.997 54.0886-35.7452 104.8335-65.9713 151.9962-22.5625 35.2051-48.9389 67.1523-78.9785 96.0902-42.5036 40.9449-90.6641 73.5884-144.2907 98.401-42.8003 19.8033-87.5104 33.0113-133.8365 40.9396-14.0158 2.3987-28.2716 3.5158-42.4578 4.761-11.5571 1.0145-23.1703 1.4385-34.767 1.926-3.9708.1669-8.0766.2668-11.9312-.5251-12.545-2.5772-20.8894-12.1102-20.3886-25.5265.4857-13.0105 7.8701-22.9003 20.3894-24.3098 12.1718-1.3701 24.4917-1.3756 36.7333-2.1817 56.1926-3.7004 109.8877-17.3949 161.2828-40.3383 45.6305-20.3703 86.7077-47.8394 123.8033-81.0547 15.3227-13.7201 28.7126-29.5989 43.48-45.0073zM1504.8398 793.8273c-5.4316 11.4663-13.835 16.5647-25.766 16.5575-30.5894-.0185-60.8862 3.1246-90.8442 9.3068-34.5622 7.1324-68.055 17.6031-100.2862 32.0953-45.55 20.4805-86.7156 47.7387-123.8697 80.9185-40.8067 36.442-73.3526 79.5412-99.4244 127.5356-22.8312 42.0285-38.5236 86.6418-47.4457 133.6385-4.1482 21.8507-7.386 43.7859-7.5918 66.1028-.0795 8.609-.649 17.2323-1.4123 25.8119-1.1474 12.8959-13.146 23.016-26.1462 22.4443-13.7228-.6035-24.5127-13.1087-24.5827-24.1865-.2678-42.3848 4.6633-84.0876 14.6827-125.217 17.9614-73.7304 50.3166-140.4738 97.4927-199.959 39.0015-49.178 84.8538-90.8236 138.5457-123.3867 55.6083-33.7256 115.342-56.8206 179.6588-68.011 29.8686-5.1969 59.831-7.03 90.0506-8.2044 21.0445-.8178 32.7993 17.379 26.9387 34.5534z"/>
</svg>