<svg xmlns="http://www.w3.org/2000/svg" viewBox="0 0 1024 1024" xml:space="preserve">
  <style>
        path {
            fill: black;
        }
        @media (prefers-color-scheme: dark) {
            path { fill: white; }
        }
  </style>
  <path d="M492.160034 698.790283c20.148926 12.991821 41.458679 22.772522 63.639404 30.692993 3.114319 1.112061 5.002503 2.79657 6.373658 5.709473 15.370971 32.653626 41.426025 51.689941 76.529541 57.724793 44.377746 7.629089 88.155273-10.763428 111.024109-52.569336 1.330322-2.431946 2.743103-4.255249 5.517883-5.29773 50.226562-18.869568 92.227051-49.097778 126.893005-90.146728 17.250305-20.426514 32.34491-41.86847 42.576844-66.620118 1.54718-3.742859 1.68048-8.17456 5.012878-11.178161 2.357178 1.137451 1.228455 2.894592 1.043518 4.383301-2.849609 22.938049-9.653809 44.83197-17.31012 66.536499-10.407043 29.502014-23.702575 57.545776-40.815307 83.778503-29.92157 45.86792-67.92511 83.598877-113.465759 113.944275-14.856507 9.899475-30.008606 19.123047-45.889649 27.332764-15.42102 7.972045-31.488769 11.122619-48.621948 10.893981-28.323914-.37799-56.652222-.521423-84.979065-.562683-50.997376-.07434-101.995026-.074524-152.992279.039551-31.826782.071228-63.657196.175171-95.476959.758667-10.560181.193665-19.81894-2.378967-28.959778-7.511047-54.082947-30.365051-97.805481-71.75824-132.416367-123.055908-25.139526-37.259827-45.173294-77.021912-57.694237-120.229615-8.008842-27.637207-13.867164-55.78424-15.65094-84.68695-3.580139-58.009522 1.111359-115.042481 19.280732-170.54068 20.311516-62.041321 52.590706-117.080948 97.033714-164.961609 33.744064-36.354111 72.532639-65.957794 116.214279-89.582344 45.867493-24.806702 94.800842-39.314896 146.038696-47.11818 23.792328-3.623451 47.744904-4.710273 71.71341-3.702888 52.345337 2.20005 102.989685 12.417213 151.031433 33.957214 3.798035 1.702904 7.517883 3.59108 11.205017 5.524781 1.367554.717178 3.230835 1.160133 3.228943 4.088913-5.607788-.455529-11.13324-.833077-16.643982-1.3638-31.150635-3.000069-62.186157-2.814606-92.948425 3.647056-61.606446 12.940491-115.902436 40.610329-163.866181 81.189735-35.031189 29.637879-60.892486 66.248124-82.72937 106.182358-15.814453 28.920685-27.121765 59.280518-32.128967 91.881501-4.174835 27.181365-6.563934 54.439514-4.947815 82.040344 1.37558 23.492645 4.097809 46.711334 10.441833 69.372894 2.956788 10.561951 6.908509 20.848023 10.494111 31.229797 1.054901 3.054322.427154 4.588135-2.777222 6.099793-32.59195 15.375-53.555176 39.863098-60.996246 75.875305-10.583771 51.221619 23.334167 109.139893 80.942138 120.481445 63.175659 12.437683 107.279846-27.942688 121.667176-73.005249 2.379333-7.452331 3.128753-7.85614 9.736816-3.591369 1.121002.72351 2.24057 1.44928 3.671478 2.358459z"/>
  <path d="M546.047302 351.792084c40.616333 11.976989 81.017334 23.253723 121.044068 35.796478 10.00415 3.134888 20.12384 5.925415 30.035095 9.326874 15.752807 5.40625 23.741638 17.220703 24.240356 33.926147 1.158814 38.818787.393616 77.628876.093994 116.446991-.335693 43.491394.489991 86.997925-.296508 130.477844-.62201 34.383606-22.537171 65.164124-63.471558 67.155396-21.914429 1.065979-37.90979-10.201538-48.916687-28.984375-24.350952-41.553772 13.890747-81.994812 47.702454-81.288452 13.244445.276672 13.243408.020019 13.254333-13.109009.02533-30.495911-.065124-60.992981.203003-91.486755.046753-5.315552-1.733154-7.376404-6.802612-8.914124-67.037537-20.334839-134.473023-39.308685-201.653412-59.151703-5.105652-1.508056-10.28772-2.755615-15.413727-4.197235-3.221558-.906006-4.815857.196442-4.803986 3.563477.00647 1.832824.002533 3.665741.002533 5.498596-.000274 63.491821.070099 126.983704-.032501 190.475342-.047272 29.248901-15.105591 51.799377-40.172455 62.295837-35.63446 14.921509-71.469726-11.518799-76.473175-45.227478-4.355743-29.344971 21.78006-58.911499 51.621552-59.728332 2.997131-.082093 5.998535-.046448 8.997467-.016419 6.540832.06543 6.500366.077759 6.594665-6.618835.865815-61.487427-.191589-122.973847-.086273-184.460846.041077-23.996796-.007141-47.993897.107239-71.990265.022156-4.648407.329132-9.334442.988617-13.933716 2.220215-15.483185 18.937408-25.922119 30.787292-22.093872 18.044922 5.829559 36.321503 10.944305 54.514801 16.311432 22.50528 6.63916 45.026001 13.225921 67.935425 19.927002zM354.124054 924.02478c50.300751.034424 100.117767.106079 149.934814.095948 46.807587-.009461 93.615204-.081666 140.422699-.186951 7.622986-.017151 14.497132 1.790954 20.201355 7.088867 9.316712 8.653137 8.041748 21.613831-2.846008 28.230408-4.49884 2.733948-9.452637 4.101562-14.732422 4.101867-99.80072.006897-199.601471.01941-299.402191-.021057-10.33902-.00415-19.556183-8.996338-20.017426-19.175781-.462921-10.216736 6.956147-18.301697 17.992951-19.53479 2.643402-.295227 5.3078-.403015 8.446228-.598511zM862.998657 921.947388c-31.798095-.180542-63.096496-.470398-94.395141-.506348-20.475953-.023437-40.952088.354065-61.42865.472107-3.987305.02301-7.983216-.231995-11.964051-.514832-10.605102-.753662-17.912536-9.271484-17.52716-20.323486.364013-10.437012 8.568542-18.397949 18.982422-18.397339 63.942505.003784 127.88507.04187 191.827514-.017334 8.546997-.007934 14.210388 4.191956 17.719971 11.490479 3.514893 7.309692 3.33606 14.496643-2.142151 21.008362-3.292297 3.913452-7.533203 5.991333-12.617737 6.1427-9.316589.277282-18.636718.435974-28.455017.645691zM716.276306 283.735535c-11.570923-15.768586-27.851196-23.254303-45.620605-28.434265-5.175721-1.508774-10.639832-2.262085-15.8125-5.01587 1.601562-3.050232 4.44458-3.428787 6.768005-4.30542 7.005737-2.643295 14.200684-4.796875 21.156921-7.557067 25.646241-10.176178 40.051514-29.881562 46.917908-55.885422 1.656311-6.272446 3.377075-12.529114 5.175232-18.762146.536987-1.861496.828491-3.942398 2.76648-5.323273 2.969787 1.320267 2.88684 4.30188 3.551208 6.683258 2.456787 8.806442 4.687439 17.67572 7.041626 26.511124 6.447632 24.198547 22.388916 39.430527 45.295898 48.242691 7.179322 2.761825 14.595459 4.598266 21.959229 6.680145 2.002197.566055 4.333557.689743 5.515198 3.213288-2.369263 2.775589-5.860108 2.749496-8.961426 3.503906-19.141296 4.656143-36.731689 12.282577-49.907288 27.524246-10.169677 11.764313-14.259216 26.535797-18.879638 40.982635-1.522705 4.761048-1.917969 10.01941-6.257325 15.591187-6.324157-18.948517-9.144531-37.898071-20.708923-53.649017zM148.092651 882.780762c48.971054-.025208 97.455719-.062073 145.940369-.034729 11.65155.00653 19.44632 5.062988 22.287476 14.160522 3.691162 11.819397-6.147583 24.114563-19.939362 24.369263-21.817444.403076-43.641495.61853-65.462616.608703-29.651962-.013244-59.30928.476441-88.955109-.532531-8.892303-.302735-17.538299-8.653015-19.066429-18.266114-1.100189-6.920959 4.82853-15.993469 12.392266-18.656311 3.956512-1.392944 8.138519-1.632324 12.803405-1.648803zM799.720154 394.316132c12.565613 31.824371 34.783752 52.201049 67.852356 60.416137 5.390503 1.339112 10.794494 2.870941 15.822082 6.49704-3.431335 2.91803-7.075134 3.333649-10.541443 4.081665-20.97351 4.526001-39.912597 12.902069-54.486816 29.240631-12.31134 13.801758-18.40155 30.660065-23.069397 48.181671-1.049377 3.939026-1.241211 8.194703-3.785339 11.946045-2.779969-1.870422-3.189148-4.770508-3.972596-7.374206-4.703796-15.632263-5.398254-31.805298-5.611022-47.918457-.378174-28.644287-.36023-57.300171-.005799-85.945008.170349-13.771362.679993-27.640747 5.552674-40.838501.794799-2.15271 1.244445-4.501525 4.187072-6.739807 3.973877 9.253083 4.549744 19.119965 8.058228 28.45279zM871.856873 375.553467c-.288575.843109-.400879 1.336365-.60022 1.791443-.717774 1.638794-1.064575 3.901794-3.270142 3.938751-2.283264.038299-2.629638-2.262146-3.21112-3.92392-1.043641-2.982452-2.039429-5.994293-2.820618-9.053741-3.57544-14.002838-12.757263-22.546936-26.037659-27.351166-4.584594-1.658478-9.640808-2.328522-13.936218-5.695801 1.988647-2.703216 4.7724-3.001922 7.228149-3.443634 17.330994-3.11734 28.275574-13.132812 33.223572-29.980163 1.286621-4.380585 2.560608-8.890046 5.826233-12.273987 2.61322.787536 2.672852 2.764343 3.155945 4.480774 1.171143 4.161224 2.339966 8.32315 3.536743 12.47702 3.632507 12.607727 12.643189 19.45639 24.646851 23.264252 5.285766 1.676788 11.019958 2.163299 15.830993 5.2406-.7182 2.571106-2.748108 2.734711-4.395996 3.286499-4.102722 1.373719-8.223327 2.71167-12.389526 3.87497-12.279175 3.428467-20.039307 11.381775-23.767029 23.444427-.982361 3.178925-1.923584 6.370545-3.019958 9.923676z"/>
</svg>