<svg version="1.1" id="Layer_1" xmlns="http://www.w3.org/2000/svg" xmlns:xlink="http://www.w3.org/1999/xlink" x="0px" y="0px"
	 width="100%" viewBox="0 0 1024 912" enable-background="new 0 0 1024 912" xml:space="preserve">
<path fill="#000000" opacity="1.000000" stroke="none" 
	d="
M1.000000,651.000000 
	C1.000000,636.645752 1.000000,622.291565 1.116184,607.099976 
	C1.672039,603.983032 2.369143,601.718994 2.507480,599.421326 
	C3.158407,588.609863 5.141840,577.990906 7.366940,567.445068 
	C12.363271,543.765015 22.098183,521.923279 33.976120,500.966461 
	C47.113911,477.786835 63.440353,457.047791 82.100624,438.097076 
	C83.652527,436.521027 85.140327,434.976562 84.667404,432.479492 
	C83.335716,425.447906 83.236961,418.267578 82.261551,411.210754 
	C78.969719,387.395081 77.844475,363.583008 80.567543,339.621399 
	C83.236137,316.139069 89.642441,293.639587 98.187393,271.732239 
	C104.204849,256.304840 112.912361,242.360611 122.597763,228.915009 
	C133.355240,213.981125 145.067017,199.886215 158.992386,187.947723 
	C187.729172,163.311142 220.420776,145.884979 257.235962,136.516296 
	C279.441467,130.865448 302.028442,128.529343 324.913574,128.724762 
	C327.473419,128.746613 330.167023,129.268005 332.179688,126.575890 
	C335.365662,122.314285 338.882416,118.300179 342.254486,114.177498 
	C355.555359,97.915947 369.854401,82.625000 385.836945,68.937996 
	C405.208832,52.348446 426.834930,39.334225 449.833801,28.527906 
	C472.400116,17.924816 496.020111,10.637776 520.629456,6.543611 
	C531.103821,4.801036 541.544189,2.854079 552.000000,1.000001 
	C573.687561,1.000000 595.375122,1.000000 617.874146,1.165500 
	C624.675781,2.847669 630.901123,2.838236 636.921387,3.967522 
	C671.128601,10.384211 704.089478,20.424023 734.652283,37.582340 
	C774.041992,59.696182 808.103760,88.089279 836.156128,123.487389 
	C861.633667,155.636520 880.893860,191.125198 892.908325,230.523865 
	C903.384521,264.878296 908.187866,299.808960 906.479492,335.730927 
	C905.782715,350.383301 904.038635,364.833374 901.727417,379.281097 
	C901.111450,383.131714 899.932739,387.398682 903.967407,390.827209 
	C921.729736,405.920776 939.020813,421.496704 954.231445,439.274506 
	C975.573486,464.218750 994.477966,490.676086 1006.082275,521.687012 
	C1011.792175,536.946106 1016.751404,552.420349 1019.707458,568.553650 
	C1021.985474,580.986572 1023.808289,593.436523 1025.000000,606.000000 
	C1025.000000,619.687561 1025.000000,633.375122 1024.939697,647.931641 
	C1024.062988,654.721069 1023.063354,660.622925 1022.460815,666.565002 
	C1019.013977,700.556091 1007.129761,732.048096 991.921143,762.066162 
	C974.458740,796.532593 949.641357,825.566162 920.640808,851.207947 
	C895.425354,873.502869 866.600220,889.243774 835.574402,901.488403 
	C823.955627,906.073792 811.798340,908.978638 800.000000,913.000000 
	C606.645752,913.000000 413.291534,913.000000 219.141968,912.850403 
	C212.213882,910.591858 206.103058,908.416443 199.944687,906.385132 
	C168.831604,896.122925 140.420303,880.937500 114.385666,860.963562 
	C91.452087,843.368774 72.091660,822.393799 54.580185,799.681213 
	C42.148277,783.556946 32.496601,765.629150 24.337942,746.954407 
	C15.445794,726.600891 8.698216,705.626892 5.334229,683.577271 
	C3.680662,672.738708 3.750188,661.681396 1.000000,651.000000 
M287.841309,209.397034 
	C286.380280,209.718857 284.919769,210.042877 283.458191,210.362183 
	C256.627838,216.223663 232.235428,227.423111 211.190002,245.065170 
	C187.311661,265.082031 171.630768,290.479187 163.098953,320.555237 
	C155.216568,348.341980 153.717422,375.869812 163.392212,403.475281 
	C166.200790,411.489136 169.013351,419.502167 171.917374,427.481659 
	C172.992264,430.435181 173.002762,433.138153 171.829483,436.159882 
	C168.816772,443.919067 165.966965,451.825592 164.641113,460.026520 
	C163.415421,467.607941 159.089767,472.561218 153.490494,477.040863 
	C141.899231,486.314240 130.562973,495.888519 121.815369,508.052124 
	C105.359200,530.934387 91.741730,555.135742 85.680466,583.105164 
	C80.298447,607.940186 78.761009,632.879761 82.474655,658.007202 
	C85.649147,679.486633 91.726982,700.102356 100.653603,720.028564 
	C111.809196,744.930237 127.667816,766.427063 146.999481,785.190796 
	C165.288589,802.942627 186.957443,816.172058 210.202835,826.687683 
	C226.594894,834.102966 243.738907,839.274536 261.734802,839.379517 
	C285.556915,839.518616 309.384796,839.373901 333.213501,839.484314 
	C387.870392,839.737427 442.533386,839.946838 497.185913,839.389404 
	C528.344604,839.071594 559.495728,839.499756 590.652222,839.254028 
	C645.481995,838.821411 700.317749,839.146606 755.151001,839.146851 
	C759.482117,839.146851 763.798584,839.049622 768.082947,838.204346 
	C788.774597,834.122009 808.716187,827.692993 827.516602,818.161255 
	C839.824524,811.921265 852.143555,805.585449 862.895752,796.673401 
	C873.415710,787.953796 883.219604,778.607544 892.390259,768.408630 
	C909.713867,749.142578 922.369385,727.152710 931.453979,703.191223 
	C941.703857,676.156372 945.601990,647.878784 944.587708,618.977295 
	C943.842834,597.753174 940.713806,576.818359 933.922668,556.719238 
	C925.292480,531.177429 912.972473,507.585388 895.544739,486.624390 
	C878.756287,466.432251 859.514465,449.119629 837.539062,435.074554 
	C826.874939,428.258759 820.266846,419.243225 815.989990,407.932983 
	C813.925659,402.473663 813.907043,396.809570 815.828003,391.281921 
	C826.012024,361.977631 828.171509,332.022736 824.956543,301.224060 
	C822.174072,274.569183 814.784302,249.344437 804.407288,224.935181 
	C796.506165,206.349808 785.918274,189.234314 773.490906,173.197617 
	C760.051636,155.855042 745.491333,139.770248 727.682922,126.784714 
	C714.874390,117.445007 701.359436,109.386284 687.372681,101.871002 
	C658.938843,86.593178 628.354065,79.309547 596.662109,76.607903 
	C577.270813,74.954857 557.822021,76.671127 538.547974,80.327293 
	C501.823822,87.293648 468.706299,102.732353 438.897675,124.528580 
	C416.215424,141.113998 397.547241,162.190323 383.366394,186.731659 
	C375.887268,199.674957 365.201874,207.263535 350.365662,208.901215 
	C344.221741,209.579391 337.969757,209.806137 331.903198,208.888123 
	C317.438812,206.699310 303.077057,206.608292 287.841309,209.397034 
z"/>
<path fill="#000000" opacity="1.000000" stroke="none" 
	d="
M353.778381,487.932251 
	C347.932251,467.155731 343.399261,446.572845 343.728363,425.214691 
	C344.195984,394.865173 350.390564,365.684326 363.083649,338.157562 
	C383.457306,293.974274 416.021912,261.723053 460.008636,240.796494 
	C483.617401,229.564697 508.224060,223.305420 534.349670,221.412735 
	C568.514099,218.937653 600.280823,226.037430 631.053711,240.560379 
	C664.026184,256.121399 690.677979,278.797333 710.951477,308.817322 
	C725.785706,330.783051 736.701721,354.778076 741.799011,380.903442 
	C749.864990,422.244446 747.091431,462.996643 730.206482,501.786743 
	C712.900269,541.544556 685.955383,573.544373 648.383301,596.061279 
	C626.605591,609.112671 603.485779,618.713623 578.351013,622.643677 
	C558.102112,625.809814 537.706970,626.851990 517.198669,624.543884 
	C489.528107,621.429932 464.029175,611.639465 440.550995,597.506775 
	C398.273315,572.057739 369.707794,535.085693 353.778381,487.932251 
M642.860779,544.350769 
	C661.802124,528.851379 676.001831,509.403717 685.865601,487.411987 
	C699.962646,455.981659 705.889343,422.975983 697.532104,388.662415 
	C691.414429,363.543732 683.002686,339.336548 664.958618,319.940155 
	C634.694824,287.408234 598.018188,268.224365 552.921692,265.862457 
	C535.471130,264.948547 518.587769,266.866455 502.254242,272.221130 
	C457.068665,287.034515 423.980347,315.979218 403.827637,359.215179 
	C395.753387,376.537842 390.388092,394.819000 389.636200,413.948669 
	C389.003876,430.035919 390.277344,446.040131 394.235840,461.916931 
	C406.201477,509.908722 432.300690,546.395142 477.944458,567.482056 
	C506.472382,580.661682 536.597839,583.883362 567.249573,579.085632 
	C595.211365,574.708923 620.071594,562.337097 642.860779,544.350769 
z"/>
<path fill="#000000" opacity="1.000000" stroke="none" 
	d="
M619.430481,764.551880 
	C593.262878,773.657898 566.312866,776.237793 539.426208,776.930481 
	C508.610321,777.724365 478.019531,774.112183 448.024292,766.106018 
	C422.293945,759.238159 398.067169,748.703491 374.146637,737.346069 
	C338.098816,720.230591 308.443237,694.571167 280.617493,666.559387 
	C252.486053,638.239868 230.455215,605.704529 214.247635,569.269897 
	C207.674835,554.494202 202.790375,538.979980 199.227631,523.306824 
	C194.990814,504.668396 197.954010,491.921967 215.653976,480.751068 
	C225.310287,474.656677 239.798584,477.229431 247.613174,485.615601 
	C256.475220,495.125824 259.764191,507.302795 263.964539,518.992310 
	C278.404633,559.178772 301.031281,594.071350 331.104004,624.268311 
	C350.939423,644.185730 372.519257,661.841248 397.051331,675.726196 
	C424.413757,691.213074 453.688873,701.197205 484.627747,706.633728 
	C507.716095,710.690674 531.012573,711.893433 554.278015,710.503113 
	C584.801025,708.679016 614.546997,702.672729 642.820618,690.282349 
	C655.515320,684.719116 667.979919,678.938110 679.496521,671.132446 
	C688.937439,664.733521 698.933594,664.947510 707.932373,671.700928 
	C716.462036,678.102173 719.214600,687.081543 718.928833,698.021484 
	C718.390686,718.625671 704.495483,727.944580 689.072937,736.366333 
	C667.078003,748.377136 644.152771,758.160461 619.430481,764.551880 
z"/>
<path fill="#000000" opacity="1.000000" stroke="none" 
	d="
M441.735596,424.946289 
	C443.858063,379.333588 465.852844,347.419159 506.771484,329.066284 
	C520.942505,322.710327 536.470642,320.926880 552.239136,322.659821 
	C568.198669,324.413757 583.094299,328.818756 596.783875,337.447052 
	C612.692932,347.474335 624.795959,360.922760 633.559509,377.368256 
	C653.163086,414.155701 648.357727,450.073334 625.497314,482.814850 
	C607.119995,509.135651 580.270874,523.323364 547.277710,524.476807 
	C531.916260,525.013855 516.848572,523.886963 502.827271,517.575500 
	C477.668121,506.250488 459.101959,488.188110 449.338593,461.891754 
	C444.969177,450.123413 442.660309,437.911255 441.735596,424.946289 
M504.596893,386.096863 
	C493.517181,396.129791 488.699860,409.164734 488.603333,423.564209 
	C488.504059,438.370270 494.230194,451.207611 504.609100,462.175415 
	C526.758789,485.581970 561.546692,482.717407 581.009338,464.158081 
	C596.954773,448.952698 601.949829,424.934784 593.946228,405.308746 
	C586.174072,386.250488 562.390076,369.775452 542.455505,369.332489 
	C527.417419,368.998352 515.590332,375.672180 504.596893,386.096863 
z"/>
</svg>